<?xml version="1.0" standalone="no"?>
<!DOCTYPE svg PUBLIC "-//W3C//DTD SVG 20010904//EN"
 "http://www.w3.org/TR/2001/REC-SVG-20010904/DTD/svg10.dtd">
<svg version="1.0" xmlns="http://www.w3.org/2000/svg"
 width="232.000000pt" height="46.000000pt" viewBox="0 0 232.000000 46.000000"
 preserveAspectRatio="xMidYMid meet">
<metadata>
Created by potrace 1.10, written by Peter Selinger 2001-2011
</metadata>
<g transform="translate(0.000000,46.000000) scale(0.100000,-0.100000)"
fill="#000000" stroke="none">
<path d="M183 448 c-6 -7 -20 -61 -33 -120 -18 -82 -27 -105 -36 -97 -7 5 -25
12 -41 13 -15 2 -31 4 -35 5 -13 2 -9 19 8 36 22 21 3 45 -20 26 -11 -9 -12
-20 -5 -43 6 -22 4 -36 -6 -52 -30 -42 -5 -106 41 -106 27 0 32 -15 9 -24 -19
-7 -20 -36 0 -36 8 0 19 -9 25 -20 13 -24 36 -26 44 -4 4 11 -3 19 -24 27 -30
11 -39 30 -20 42 6 4 20 -5 31 -19 26 -33 70 -56 106 -56 33 0 88 31 102 58 7
14 18 18 36 15 56 -11 20 14 -61 42 -47 16 -88 33 -90 37 -9 13 26 9 62 -8 19
-9 41 -14 49 -10 22 8 55 84 55 129 0 61 -51 145 -82 135 -7 -3 -28 6 -47 19
-38 26 -54 29 -68 11z m70 -41 c41 -38 63 -104 49 -145 -6 -18 -15 -26 -28
-25 -10 1 -32 -2 -49 -8 l-30 -10 40 41 c48 49 38 52 -18 5 -22 -19 -42 -33
-44 -31 -2 1 8 29 23 60 14 32 23 60 20 63 -3 3 -15 -17 -27 -45 -12 -29 -26
-52 -31 -52 -5 0 -5 7 0 18 5 9 15 42 22 72 23 107 22 106 73 57z m97 -88 c12
-42 1 -99 -24 -131 -12 -17 -15 -17 -45 -2 -19 9 -42 13 -56 10 -14 -4 -25 -2
-25 3 0 6 26 11 58 13 l57 3 9 38 c9 36 5 68 -18 132 -7 17 -5 17 13 -3 11
-13 25 -41 31 -63z m-245 -109 c15 -16 17 -26 9 -48 -8 -22 -15 -27 -44 -27
-29 0 -36 5 -44 27 -8 22 -6 32 9 48 10 11 26 20 35 20 9 0 25 -9 35 -20z m55
-35 c0 -2 -9 -19 -20 -37 -22 -36 -27 -25 -8 17 10 21 28 35 28 20z m50 -21
c0 -3 -7 -12 -15 -21 -9 -8 -19 -28 -22 -44 -7 -34 -23 -29 -23 8 0 29 25 63
47 63 7 0 13 -3 13 -6z m40 -23 c0 -5 -7 -14 -15 -21 -8 -7 -15 -26 -15 -42 0
-19 -4 -28 -12 -26 -20 7 -21 46 -4 74 16 23 46 33 46 15z m54 -17 c22 -8 4
-39 -34 -59 -29 -15 -30 -15 -30 6 0 22 26 59 41 59 4 0 14 -3 23 -6z"/>
<path d="M50 205 c-7 -8 -10 -22 -6 -30 7 -19 45 -19 52 0 6 15 -11 45 -26 45
-4 0 -13 -7 -20 -15z"/>
<path d="M490 306 l0 -136 30 0 30 0 0 110 c0 90 3 110 15 110 8 0 19 -10 26
-21 9 -17 7 -26 -8 -48 -19 -26 -19 -27 1 -76 12 -28 25 -56 29 -63 8 -11 67
-18 67 -7 0 3 -12 29 -26 57 -25 49 -25 53 -10 79 21 36 20 72 -3 100 -15 19
-30 24 -85 27 l-66 4 0 -136z"/>
<path d="M1750 310 l0 -130 25 -6 c39 -10 114 5 136 27 25 25 24 74 -1 99 -19
19 -19 22 -5 43 21 30 19 44 -10 72 -20 21 -34 25 -85 25 l-60 0 0 -130z m91
80 c26 -15 24 -38 -6 -52 -13 -6 -27 -19 -30 -30 -9 -26 -25 -22 -25 7 0 18 4
23 15 19 12 -5 15 2 15 30 0 39 2 41 31 26z m22 -122 c13 -20 -6 -48 -34 -48
-15 0 -19 7 -19 36 0 31 3 35 21 32 12 -2 27 -10 32 -20z"/>
<path d="M719 341 c-23 -23 -29 -38 -29 -71 0 -73 60 -114 138 -94 34 9 27 50
-8 47 -35 -3 -70 6 -70 17 0 6 25 10 55 10 l55 0 0 35 c0 79 -85 112 -141 56z
m89 -38 c2 -9 -7 -13 -27 -13 -30 0 -39 9 -24 24 11 10 46 3 51 -11z"/>
<path d="M870 368 c0 -2 15 -46 34 -98 32 -89 36 -95 62 -95 26 0 30 7 66 95
21 52 38 96 38 98 0 1 -16 2 -35 2 -31 0 -35 -3 -44 -37 -6 -21 -11 -46 -11
-55 0 -35 -16 -17 -30 35 -14 48 -18 52 -48 55 -17 2 -32 2 -32 0z"/>
<path d="M1090 270 l0 -100 30 0 30 0 0 100 0 100 -30 0 -30 0 0 -100z"/>
<path d="M1215 347 c-39 -33 -46 -103 -14 -141 42 -48 155 -45 142 4 -5 18
-11 20 -43 15 -27 -5 -40 -2 -50 9 -11 14 -6 16 44 16 l56 0 0 35 c0 74 -80
110 -135 62z m83 -44 c2 -9 -7 -13 -27 -13 -30 0 -39 9 -24 24 11 10 46 3 51
-11z"/>
<path d="M1369 365 c-3 -2 9 -47 25 -100 27 -83 34 -95 53 -95 25 0 37 18 48
75 l8 40 16 -55 c14 -46 21 -55 43 -58 24 -3 27 2 52 83 15 47 29 92 33 101 5
12 -1 15 -28 12 -33 -3 -34 -5 -43 -55 -9 -57 -26 -72 -26 -24 0 50 -17 81
-44 81 -22 0 -26 -6 -36 -55 -13 -61 -30 -74 -30 -22 0 58 -10 77 -39 77 -15
0 -30 -2 -32 -5z"/>
<path d="M2005 358 c-33 -18 -45 -40 -45 -84 0 -57 7 -72 43 -90 31 -16 117
-12 117 6 0 30 -13 40 -46 34 -21 -4 -40 -2 -49 6 -27 22 -16 29 40 23 l55 -6
0 41 c0 64 -60 101 -115 70z m69 -54 c4 -10 -3 -14 -29 -14 -37 0 -46 13 -18
28 20 12 39 6 47 -14z"/>
<path d="M2179 341 c-38 -39 -40 -97 -5 -138 21 -24 31 -28 75 -27 58 1 65 5
56 33 -5 16 -12 19 -40 14 -27 -4 -40 -1 -60 18 -31 30 -31 34 1 64 21 19 30
22 45 14 30 -15 22 -29 -16 -29 -47 0 -48 -27 -1 -35 57 -11 81 -3 79 25 -5
51 -13 67 -38 78 -41 19 -64 14 -96 -17z"/>
<path d="M61 281 c-15 -28 -14 -36 4 -21 8 7 22 9 31 6 11 -4 14 -1 12 11 -5
25 -35 28 -47 4z"/>
<path d="M600 118 c0 -26 21 -88 30 -88 4 0 12 15 16 33 l7 32 9 -33 c12 -44
24 -40 37 12 14 55 14 59 1 51 -5 -3 -10 -17 -10 -31 0 -32 -18 -31 -22 1 -4
33 -22 33 -26 0 -4 -32 -22 -33 -22 -1 0 14 -4 28 -10 31 -5 3 -10 0 -10 -7z"/>
<path d="M720 80 c0 -27 5 -50 10 -50 6 0 10 11 10 25 0 14 5 25 10 25 6 0 10
-11 10 -25 0 -14 5 -25 10 -25 6 0 10 14 10 31 0 22 -5 32 -20 36 -11 3 -20
12 -20 19 0 8 -4 14 -10 14 -5 0 -10 -22 -10 -50z"/>
<path d="M1000 123 c0 -5 7 -17 15 -27 8 -11 15 -30 15 -43 0 -13 5 -23 10
-23 6 0 10 9 10 21 0 11 5 29 11 40 6 11 8 25 5 32 -2 7 -8 2 -11 -10 -9 -28
-22 -29 -30 -3 -6 19 -25 29 -25 13z"/>
<path d="M1305 110 c-28 -31 -10 -75 30 -75 27 0 30 4 33 33 6 57 -29 80 -63
42z m50 -21 c8 -24 -16 -55 -34 -45 -12 8 -15 49 -4 59 13 14 32 7 38 -14z"/>
<path d="M1847 123 c-11 -10 -8 -93 3 -93 6 0 10 12 10 27 0 25 1 26 14 8 13
-18 13 -18 24 1 10 17 11 17 12 -8 0 -16 5 -28 10 -28 13 0 13 87 0 95 -5 3
-16 -9 -23 -27 l-13 -33 -12 33 c-11 33 -14 36 -25 25z"/>
<path d="M2014 96 c-10 -27 0 -61 21 -64 15 -2 17 -1 6 6 -9 7 -11 19 -7 35 7
28 -10 48 -20 23z"/>
<path d="M2059 105 c-11 -10 4 -75 17 -75 12 0 12 4 2 20 -11 17 -10 22 1 29
7 5 10 14 7 20 -7 11 -19 14 -27 6z"/>
<path d="M801 86 c-21 -25 -9 -51 24 -53 20 -1 23 0 8 4 -29 6 -30 23 -2 23
14 0 19 5 17 17 -4 23 -31 28 -47 9z"/>
<path d="M862 65 c-1 -19 3 -35 8 -35 6 0 10 11 10 25 0 14 5 25 10 25 6 0 10
5 10 10 0 6 -8 10 -18 10 -14 0 -19 -8 -20 -35z"/>
<path d="M914 86 c-11 -28 1 -51 26 -53 l25 -3 -25 12 -25 12 28 4 c29 4 33
12 15 30 -16 16 -37 15 -44 -2z"/>
<path d="M1074 75 c-8 -31 6 -48 32 -43 29 5 26 62 -3 66 -17 3 -24 -3 -29
-23z m44 -12 c-5 -25 -28 -28 -28 -4 0 12 6 21 16 21 9 0 14 -7 12 -17z"/>
<path d="M1144 84 c3 -9 6 -24 6 -35 0 -14 7 -19 25 -19 23 0 25 4 23 38 l-1
37 -4 -33 c-5 -39 -26 -38 -31 1 -2 15 -8 27 -14 27 -5 0 -7 -7 -4 -16z"/>
<path d="M1220 65 c0 -19 5 -35 10 -35 6 0 10 11 10 25 0 14 5 25 10 25 6 0
10 5 10 10 0 6 -9 10 -20 10 -16 0 -20 -7 -20 -35z"/>
<path d="M1391 48 c1 -29 3 -45 6 -35 2 9 13 17 23 17 21 0 33 25 25 51 -4 12
-16 19 -31 19 -23 0 -24 -3 -23 -52z m37 15 c-5 -25 -28 -28 -28 -4 0 12 6 21
16 21 9 0 14 -7 12 -17z"/>
<path d="M1500 63 c0 -18 5 -33 11 -33 5 0 9 10 7 22 -2 11 3 23 10 25 7 3 12
-5 12 -21 0 -14 5 -26 10 -26 12 0 13 40 2 57 -4 7 -18 11 -30 10 -18 -1 -22
-7 -22 -34z"/>
<path d="M1574 65 c0 -19 4 -35 8 -35 4 0 8 16 8 35 0 19 -4 35 -8 35 -4 0 -8
-16 -8 -35z"/>
<path d="M1611 82 c-12 -23 4 -52 29 -52 23 0 36 36 20 55 -17 20 -37 19 -49
-3z m39 -23 c0 -24 -23 -21 -28 4 -2 10 3 17 12 17 10 0 16 -9 16 -21z"/>
<path d="M1680 66 c0 -20 5 -36 10 -36 6 0 10 11 10 25 0 14 5 25 10 25 6 0
10 -11 10 -25 0 -14 5 -25 11 -25 6 0 9 14 7 33 -2 27 -8 33 -30 35 -26 3 -28
1 -28 -32z"/>
<path d="M1754 88 c-4 -6 0 -16 9 -23 22 -16 21 -22 0 -28 -14 -4 -13 -5 4 -6
29 -1 40 19 20 34 -21 15 -22 26 -2 19 8 -4 15 -1 15 5 0 15 -37 14 -46 -1z"/>
<path d="M1950 89 c0 -5 4 -8 9 -4 5 3 12 1 15 -4 3 -5 -4 -11 -15 -14 -28 -7
-19 -32 12 -32 26 0 34 28 16 53 -11 15 -37 16 -37 1z"/>
<path d="M2104 86 c-11 -28 1 -51 26 -53 l25 -3 -25 12 -25 12 28 4 c21 2 27
8 23 19 -3 8 -6 17 -6 19 0 11 -41 2 -46 -10z"/>
<path d="M2170 65 c0 -19 5 -35 10 -35 6 0 10 11 10 25 0 14 5 25 10 25 6 0
10 5 10 10 0 6 -9 10 -20 10 -16 0 -20 -7 -20 -35z"/>
</g>
</svg>
